<?xml version="1.0"?>
<svg width="1024" height="2048" xmlns="http://www.w3.org/2000/svg" xmlns:svg="http://www.w3.org/2000/svg" xmlns:se="http://svg-edit.googlecode.com" data-name="Layer 1">
 <defs>
  <style>.cls-1{fill:#fff;}</style>
 </defs>
 <g class="layer">
  <title>Layer 1</title>
  <path class="cls-1" d="m319.26,284l-0.08,0l0.08,0z" id="svg_1" transform="translate(17.56 3.86)"/>
  <path class="cls-1" d="m255.44,400.68c-0.16,-0.52 -0.34,-1 -0.52,-1.48l-0.67,-0.09l0.35,0.4l0.84,1.17z" id="svg_2" transform="translate(17.56 3.86)"/>
  <path class="cls-1" d="m582.78,368.59c7.43,0.52 14.86,2 22.34,0l0,0c-7.42,-0.69 -14.91,-2.07 -22.34,0z" id="svg_3" transform="translate(17.56 3.86)"/>
  <path class="cls-1" d="m302.5,285.76c2.88,-0.84 5.45,-2.27 5.14,-6.1c-0.1,-1.31 0.87,-2.26 2.78,-2.77l0,0c-2,0.51 -3,1.47 -2.86,2.8c0.31,3.83 -2.26,5.26 -5.14,6.1c-5.31,1.55 -10.72,2.75 -16.08,4.14a5.76,5.76 0 0 1 -0.62,0.13a5.76,5.76 0 0 0 0.7,-0.14c5.36,-1.41 10.77,-2.61 16.08,-4.16z" id="svg_4" transform="translate(17.56 3.86)"/>
  <path class="cls-1" d="m319.45,284.07c0.87,0.4 2.36,0 3.2,0.43c-0.81,-0.45 -2.29,-0.05 -3.2,-0.43z" id="svg_5" transform="translate(17.56 3.86)"/>
  <path class="cls-1" d="m258.499985,829.176021l0,348.598628l506.999995,0l0,-348.598628l-506.999995,0zm323.161913,181.681743l5.041095,0.427799l2.271961,0.387332l0.034686,0c-0.687948,1.375895 -2.081186,0.543421 -3.052406,1.011688c-1.734322,-0.352645 -3.902223,0.578107 -5.075781,-1.595576l0.780445,-0.231243zm-132.022336,50.873432c1.479954,-1.266055 2.809601,-1.549327 3.746135,0.578107l-3.746135,-0.578107zm68.101026,0.43358c2.208369,1.341209 4.804071,-0.780445 7.44602,1.266055c-5.885131,0.664823 -5.885131,0.664823 -7.440239,-1.289179l-0.005781,0.023124zm53.341949,7.76976c-0.624356,-0.508734 0.491391,-1.156214 0.890285,-1.664949l0.884504,0l2.208369,1.555108c-1.693854,0.098278 -2.948347,0.91919 -3.977377,0.086716l-0.005781,0.023124zm5.457332,0.815131c0.641699,-0.543421 1.248712,-0.387332 1.901973,0a1.462611,1.462611 0 0 1 -1.896192,-0.005781l-0.005781,0.005781zm89.849418,-80.212371a1.156214,1.156214 0 0 0 0.144527,0.676385a19.239407,19.239407 0 0 0 -1.543546,10.272965q-1.855724,6.260901 -3.717229,12.504458a22.210878,22.210878 0 0 1 -0.491391,2.173683a28.460216,28.460216 0 0 0 -2.046499,10.550456c0,2.21415 -1.323865,4.087218 -2.138997,6.104812c-1.283398,3.162246 -1.734322,6.671357 -4.705792,8.925975a0.612794,0.612794 0 0 0 -0.578107,0.635918a0.711072,0.711072 0 0 0 0,0.10984c-0.05203,0.231243 -0.10984,0.468267 -0.16187,0.69951c-0.578107,0.618575 -1.734322,0.768883 -1.497298,2.000251c-0.416237,0.184994 -0.734196,0.43358 -0.578107,0.959658c-3.07553,2.185245 -2.890536,5.561391 -3.208495,8.752543c-0.057811,0.612794 -0.410456,1.485735 -0.942315,1.364333c-3.595827,-0.803569 -2.572577,2.162121 -3.196933,3.77504c-0.092497,0.080935 -0.190775,0.156089 -0.294835,0.231243c-2.393364,1.254493 -4.04675,3.543797 -6.654014,4.555485c-3.532235,1.375895 -5.960285,0.53764 -6.752292,-2.711323c-1.526203,2.740228 -3.12756,3.144903 -4.497674,0c-1.555108,1.156214 -1.046374,3.590046 -3.312554,3.82707c-1.491517,0.150308 -1.982908,0.763101 -0.508734,1.89041c0.803569,0.618575 -0.190775,0.896066 -0.369989,1.352771c-0.774664,1.930878 -2.763352,1.109966 -4.04675,1.884629c-1.89041,0 -3.786602,0.190775 -5.659669,0.063592c-4.289555,-0.289054 -8.608016,-1.237149 -12.83976,-0.924971c-3.162246,0.231243 -5.411083,-1.208244 -7.977879,-2.191026c-1.104185,-0.422018 -2.063843,-0.867161 -2.624607,0.693729c-0.942315,2.624607 -2.185245,2.081186 -3.2374,0.138746a1.769008,1.769008 0 0 0 -1.693854,-1.029031c-2.786477,1.017469 -5.648107,-0.387332 -8.399897,0.393113l-0.884504,0c-1.572452,-0.05203 -2.312429,-2.75179 -4.324242,-1.387457a1.844162,1.844162 0 0 0 -0.711072,0.05203l-1.45683,-0.063592c-1.156214,-0.43358 -2.312429,0.156089 -3.694105,-0.190775c-3.780821,-0.953877 -7.151186,-3.295211 -11.637297,-2.312429c-3.815507,0.820912 -8.191779,0.878723 -11.48699,-2.688198c-1.491517,-1.612919 -4.012064,-0.439361 -6.018096,-1.283398c-1.474173,-0.618575 -3.353022,-2.514766 -5.075781,-0.150308a0.965439,0.965439 0 0 0 -0.294835,0.578107l-0.086716,0c-2.445393,1.659168 -4.954379,0.670604 -7.44602,0.098278c1.537765,-1.930878 3.757697,0.364208 5.399521,-0.878723c-1.867286,-2.312429 -4.624857,-2.040718 -7.081813,-2.075405c-3.121779,-0.05203 -6.295587,-0.369989 -9.38268,0.670604c-0.531859,0.179213 -1.50886,-0.664823 -1.954002,0.104059s1.277617,0.907628 0.872942,1.884629a7.833352,7.833352 0 0 0 -3.728791,-0.190775l-1.109966,0.27171c-3.676762,-0.508734 -7.029783,1.318084 -10.694983,1.549327c-3.786602,0.242805 -7.515393,2.410707 -11.608392,2.347115c-2.532109,-1.815257 -4.948597,0 -7.417115,0.231243a0.768883,0.768883 0 0 0 -0.462486,-0.306397c0.063592,-0.202338 0,-0.32374 -0.225462,-0.364208a0.294835,0.294835 0 0 0 -0.248586,-0.277491c-1.844162,-2.121653 -4.347366,-2.445393 -6.937286,-2.676636c-3.029282,-0.265929 -6.231995,0.184994 -8.891288,-1.861505l-0.040468,0c-0.410456,0.364208 -0.520296,1.786351 -1.416363,0.439361c-1.219806,-0.549202 -2.312429,0.416237 -3.509111,0.265929l-0.057811,0c-0.445143,0 -1.121528,0.43358 -0.977001,-0.578107c-1.809475,-1.94244 -4.700011,0.69951 -6.445895,-1.497298c0.913409,-0.942315 2.688198,-0.815131 3.266306,-2.370239l-0.05203,0c-0.578107,1.526203 -2.312429,1.410582 -3.243181,2.312429c-0.173432,1.797913 -1.300741,2.647731 -2.959909,2.971471c-1.011688,-1.479954 -1.329647,-2.826944 0.728415,-3.682543c-0.838255,-0.491391 -1.364333,-2.959909 -2.381802,-1.069498c-0.739977,1.375895 -1.734322,1.393238 -2.618826,1.861505c-3.468643,1.884629 -7.723512,0.734196 -11.186374,2.769133l-0.034686,0a2.549453,2.549453 0 0 1 -1.225587,2.121653c-4.092999,0.739977 -8.024128,3.220057 -12.417742,1.156214c-0.393113,-0.190775 -1.098404,0.277491 -1.659168,0.439361c-1.676511,-0.479829 -2.555234,-1.196682 -0.832474,-2.688198c-0.820912,-0.531859 -1.641824,-0.115621 -2.370239,0.16187c-2.10431,0.797788 -4.104561,2.931003 -6.318711,0.086716c-0.393113,-0.502953 -1.057936,0.242805 -1.601357,0.43358c-4.000502,1.4048 -8.3074,2.653512 -12.342588,2.370239a42.011049,42.011049 0 0 0 -18.279749,2.630388l-5.833101,0.982782c-2.034937,-0.497172 -3.960034,0.104059 -5.896693,0.578107c-0.64748,-1.78057 -2.254618,-2.537891 -3.815507,-2.948347c-4.121904,-1.086841 -7.220559,-3.150684 -8.46927,-7.428677l-0.05203,0l-0.190775,-2.011813l-0.057811,-0.121403l0.040468,-2.219932c-0.063592,-1.497298 0.514515,-3.07553 -0.543421,-4.445644l-0.670604,-1.341209l-0.335302,-3.734572l0,-1.375895c0.283273,-0.711072 -0.167651,-1.156214 -0.578107,-1.601357l0.855599,-1.925097c1.659168,-1.925097 1.774789,-4.53236 2.948347,-6.677138c1.34699,-1.104185 2.399145,-2.364458 2.179464,-4.266431a2.098529,2.098529 0 0 0 1.364333,-2.468518c1.156214,-1.844162 3.115998,-3.295211 2.809601,-5.838882a9.162999,9.162999 0 0 0 1.560889,-4.515017c0.924971,-1.283398 0.867161,-2.855849 1.271836,-4.289555c0.127184,-0.97122 0.248586,-1.936659 0.369989,-2.890536q2.659293,-8.758324 5.260775,-17.505085l1.156214,-2.312429c5.520924,-1.289179 8.544424,-5.994971 12.718358,-9.134093c2.219932,-1.67073 5.202965,-2.312429 8.0935,-3.503329c-0.196556,2.312429 -2.387583,2.699761 -2.971471,4.26065l0,0.046249c-1.838381,3.607389 1.08106,5.867788 2.433831,8.573329a1.612919,1.612919 0 0 0 1.607138,1.584014c0.456705,2.086967 2.931003,4.272212 -0.335302,6.20309a1.364333,1.364333 0 0 0 -0.104059,1.289179c1.156214,1.50886 0.578107,2.410707 -0.75732,3.468643a3.960034,3.960034 0 0 0 -1.24293,2.532109a34.484093,34.484093 0 0 1 -2.231494,9.879852c-0.676385,1.699635 0.121403,2.514766 1.89041,2.462737l2.988814,-0.046249c1.786351,-0.05203 3.6652,0.248586 5.127811,-1.190901l0.612794,0c2.936784,1.358552 6.058563,0.786226 9.093626,0.768883c11.7587,-0.057811 23.158974,-3.468643 34.894549,-3.786602l1.514641,0l7.98366,-0.86138l1.034812,-0.115621l0.664823,-0.306397l0.306397,0.05203l0.254367,-0.184994a60.308141,60.308141 0 0 0 12.446648,-2.254618c2.254618,0.728415 4.335804,2.543672 6.937286,1.086841l-1.630262,-1.734322c2.058062,-0.924971 4.665325,-0.711072 5.983409,-3.150684c0.543421,-1.011688 1.786351,-0.254367 2.653512,-0.578107c-0.040468,1.219806 -2.312429,2.376021 -0.098278,3.647856l-5.023751,0.965439c-0.520296,0.132965 -0.75732,0.312178 -0.086716,0.578107l1.526203,0.422018c0.838255,0.341083 1.503079,-0.075154 2.179464,-0.474048c4.590171,-0.144527 9.249715,0.404675 13.683797,-1.277617l3.202714,-0.294835c2.150559,-0.896066 4.486112,0.936534 6.601984,-0.450924a133.993682,133.993682 0 0 1 18.412714,-0.815131c4.168153,0.104059 8.342087,-0.173432 12.510239,-0.277491c-0.289054,-2.138997 -2.352896,-1.208244 -3.468643,-1.699635c-2.312429,-0.977001 -4.509236,-2.769133 -6.729168,-3.006157c-2.445393,-0.260148 -4.717355,0.716853 -5.2839,-2.792258a1.312303,1.312303 0 0 0 -1.462611,-1.156214a1.370114,1.370114 0 0 0 -0.497172,0.167651c-0.977001,0.607013 -1.399019,0.10984 -2.312429,-0.179213c-2.404926,-0.768883 -4.838757,-3.717229 -7.717731,-0.64748c-0.543421,0.578107 -2.179464,0 -1.364333,1.8326c0.404675,0.890285 -0.630137,1.427925 -1.381676,1.838381l-0.786226,0.231243l-0.768883,-0.306397c-1.034812,-1.063717 -2.572577,0.317959 -3.61317,-0.734196c-1.248712,-1.485735 -2.42805,-0.445143 -3.630513,0.075154c0,0 0,0 0.028905,0l-3.636294,2.462737l-1.555108,-1.156214c1.034812,-2.364458 1.977127,-3.272087 3.214276,-2.826944c-1.260274,-0.491391 -2.219932,0.410456 -3.277868,2.809601a36.420752,36.420752 0 0 0 -8.735199,3.063968c-0.491391,-2.312429 -2.029156,-1.965564 -3.642075,-1.4048l0.046249,-0.05203c0.277491,-3.468643 -2.283523,-0.578107 -3.162246,-1.393238c-0.745758,-0.080935 -1.653387,0.092497 -1.977127,-0.820912c-0.190775,-0.578107 0.294835,-0.687948 0.768883,-0.693729l0,0l0.046249,0c-0.225462,-1.543546 -1.358552,-1.734322 -2.312429,-1.034812c-3.052406,2.21415 -3.353022,2.21415 -5.492018,-1.156214a5.434207,5.434207 0 0 1 -0.306397,-0.641699c4.69423,0.664823 4.734698,0.670604 9.249715,-0.896066l0.034686,-0.075154c-4.624857,1.601357 -4.624857,1.601357 -9.336431,0.930753l0,-0.040468c-1.982908,-1.271836 -3.879099,-0.144527 -5.781072,0.2139c0.578107,-1.063717 -0.196556,-1.734322 -0.705291,-2.468518c2.271961,-0.445143 4.515017,-0.867161 5.71748,-3.272087c0.445143,-0.884504 1.127309,-0.514515 1.6187,0c-0.48561,-0.543421 -1.196682,-0.942315 -1.659168,-0.034686c-1.202463,2.404926 -3.468643,2.826944 -5.71748,3.272087a0.664823,0.664823 0 0 0 -0.450924,-0.289054l-2.31821,3.324116l-3.063968,0.05203c-1.45683,-0.208119 -2.312429,1.283398 -3.676762,1.306522l-1.468392,1.734322c-0.508734,-0.826693 -1.005906,-1.826819 -2.196807,-1.104185c-0.988563,0.578107 -0.48561,1.445268 -0.092497,2.202588l-1.410582,0.167651c-0.844036,-1.266055 -1.971345,-2.098529 -3.538016,-1.734322c-1.208244,0.27171 -2.312429,0.526078 -3.2374,-0.578107l0.884504,-1.381676c1.560889,-0.190775 2.64195,-1.826819 4.387833,-1.474173c4.341585,-2.520547 9.324869,-3.896442 13.209749,-7.255245c2.433831,-0.768883 5.254994,-0.803569 6.6887,-3.468643a177.270785,177.270785 0 0 0 23.349749,-13.394743c1.6187,-1.156214 3.468643,-1.930878 4.809852,-3.468643l1.040593,-0.913409c2.248837,-1.075279 3.913786,-2.890536 5.850445,-4.405177c1.930878,-1.624481 3.653637,-3.642075 5.844664,-4.775165c4.26065,-2.21415 3.607389,-5.405302 2.410707,-8.862383c-1.4048,-4.04675 -0.352645,-5.532486 4.480331,-5.636545c-2.208369,-2.05228 -1.849943,-3.792383 0.335302,-5.39374a3.416613,3.416613 0 0 0 1.485735,-3.121779c-0.040468,-0.664823 -0.069373,-1.410582 1.063717,-1.451049c2.994595,-0.10984 2.462737,-2.046499 1.925097,-3.93691l3.584265,1.121528c1.971345,1.190901 3.532235,3.069749 5.942942,3.526454l3.578483,2.954128c-0.456705,1.601357 0.578107,2.613044 1.451049,3.688324c-0.260148,0.664823 -0.514515,1.323865 -0.768883,1.988689c-0.942315,0.578107 -0.497172,1.156214 0.098278,1.659168c-0.745758,2.659293 -2.05228,5.509361 2.138997,6.567298l1.526203,2.890536c-0.445143,1.485735 1.092623,1.878848 1.572452,2.855849c1.786351,2.659293 0.439361,5.376397 -0.653261,7.515393c-1.965564,3.844413 0.659042,3.642075 2.890536,4.127685c3.104436,1.734322 6.613546,2.26618 9.972349,3.243181a240.602426,240.602426 0 0 1 36.010296,13.712702c2.746009,1.29496 3.699886,3.052406 3.069749,5.873569l-1.312303,0.445143c-1.208244,-0.965439 -1.884629,-0.138746 -2.537891,0.75732c-1.809475,0.202338 -3.040844,0.91919 -3.670981,2.850068c-0.479829,1.468392 -3.196933,2.462737 -0.653261,4.387833c0.196556,0.150308 -0.37577,0.832474 0.173432,0.780445c3.029282,-0.289054 4.254869,3.763478 5.624983,3.601608c3.468643,-0.410456 2.312429,1.89041 2.850068,3.248962l0,-0.028905a2.607263,2.607263 0 0 0 2.185245,0.988563c0.578107,0.722634 1.699635,1.676511 -0.329521,1.734322c-1.485735,0.069373 -2.722885,-0.763101 -3.77504,-1.803694l-0.05203,0c-1.121528,-0.219681 -2.959909,0.069373 -2.58992,0.907628c0.491391,1.109966 1.641824,2.855849 3.468643,2.537891c3.630513,-0.630137 7.191653,0.578107 10.793261,0.248586c1.02325,0.930753 2.312429,0.982782 3.595827,1.318084c2.798039,0.734196 5.39374,-1.364333 8.284276,-0.10984c1.699635,0.739977 3.023501,2.410707 5.098905,2.277742c0.208119,0.711072 0.080935,1.474173 1.312303,1.578233c2.439612,0.208119 4.8561,0.728415 7.278369,1.115747c1.925097,1.907754 4.382052,1.584014 6.752292,1.607138c1.433706,0.398894 2.763352,1.34699 4.364709,0.786226c2.191026,0.745758 3.601608,-3.046625 6.029658,-1.046374c0.034686,0.028905 0.514515,-0.32374 0.48561,-0.404675c-1.029031,-3.185371 2.497423,-5.526705 1.589795,-8.671608c1.734322,-1.156214 1.520422,-2.746009 0.896066,-4.399396c1.734322,0.219681 1.283398,-1.127309 1.445268,-2.034937l4.197058,-11.943694c0.427799,-0.664823 1.075279,-1.266055 0.69951,-2.191026c2.312429,-1.919316 3.07553,-4.555485 3.538016,-7.353523c1.109966,-1.688073 3.526454,-3.318335 3.780821,-4.393615c0.578107,-2.503204 2.15634,-4.092999 3.387708,-6.000753c1.664949,-2.58992 3.514892,-5.058438 5.202965,-7.619453a3.092873,3.092873 0 0 1 1.734322,-1.156214l0,6.359179c1.734322,-2.10431 2.277742,-5.110467 4.162372,-5.451551c2.746009,-0.497172 1.6187,-2.179464 1.988689,-3.468643c5.202965,1.99447 2.670855,6.63667 3.225838,10.093751c0.398894,2.474299 -0.48561,5.139373 -0.630137,7.729293c-0.063592,1.092623 0.237024,1.844162 1.56667,2.688198c2.347115,1.491517 0.907628,4.133466 0.427799,6.324493c-0.965439,0.549202 -0.462486,1.040593 0.115621,1.514641zm-229.121218,14.678141l1.422144,-0.075154c1.156214,1.156214 -1.08106,2.566796 0.254367,3.728791c-1.664949,2.850068 -3.590046,0.341083 -5.399521,0.265929c-0.659042,-0.43358 -0.682166,-1.115747 -0.630137,-1.803694l0.578107,-0.872942a5.405302,5.405302 0 0 0 3.77504,-1.24293zm3.532235,3.618951c0.092497,-1.364333 1.202463,-2.277742 2.121653,-1.734322c1.271836,0.768883 2.890536,1.821038 2.347115,3.908005l-0.254367,0.184994l-0.306397,-0.040468c-0.497172,-0.248586 -1.202463,-0.838255 -1.45683,-0.687948c-2.110091,1.277617 -1.849943,-0.792007 -2.451174,-1.630262zm5.82732,-10.984036l1.491517,0c-0.063592,0.468267 -0.132965,1.005906 -0.728415,0.994344s-0.682166,-0.549202 -0.763101,-1.011688l0,0.017343zm5.919818,5.890912c1.416363,-0.948096 2.890536,-0.53764 4.347366,0c-1.503079,0.439361 -2.774914,2.069624 -4.405177,0.936534a0.994344,0.994344 0 0 1 0.057811,-0.936534zm34.51878,4.249088l-3.202714,0.294835c-2.144778,-1.734322 -4.757822,-0.080935 -7.024002,-0.97122c0.05203,-1.069498 0.578107,-1.358552 1.653387,-1.306522c2.647731,0.121403 5.307024,0.202338 7.948974,0.10984s0.104059,1.358552 0.624356,1.873067z" fill="#ffffff" id="svg_6" transform="matrix(1 0 0 1 0 0)"/>
  <path class="cls-1" d="m243.21,398.35l0,0l0.09,0a217.57,217.57 0 0 1 27.82,-1.82s0,-0.05 0,-0.08a218.39,218.39 0 0 0 -27.91,1.9z" id="svg_7" transform="translate(17.56 3.86)"/>
  <path class="cls-1" d="m285.72,290c-2.78,0.42 -1.6,-2 -1.77,-3.49l-0.08,0c0.13,1.55 -1.04,4.02 1.85,3.49z" id="svg_8" transform="translate(17.56 3.86)"/>
  <path class="cls-1" d="m310.5,276.86l-0.08,0c-0.22,1.85 -1.18,3.86 0.53,5.27l0.06,0l0,0c-1.69,-1.4 -0.72,-3.41 -0.51,-5.27z" id="svg_9" transform="translate(17.56 3.86)"/>
  <path class="cls-1" d="m339.38,285.18l-0.17,0.06c-1.2,2.34 1.53,5 -2,6.45c0,0 0,0 0,0.06c3.79,-1.47 0.79,-4.22 2.17,-6.57z" id="svg_10" transform="translate(17.56 3.86)"/>
  <path class="cls-1" d="m324,280.36c-1.45,1.63 -4.21,0.67 -5.29,2.85a1.21,1.21 0 0 0 0.45,0.71a1.2,1.2 0 0 1 -0.38,-0.64c1.08,-2.18 3.84,-1.22 5.29,-2.85c1,-1.06 1.66,-1.91 0.66,-3.14l-0.2,-0.21l0.13,0.14c1.06,1.23 0.34,2.08 -0.66,3.14z" id="svg_11" transform="translate(17.56 3.86)"/>
  <path class="cls-1" d="m319.26,284a1.18,1.18 0 0 0 0.19,0.11a1.18,1.18 0 0 1 -0.19,-0.11z" id="svg_12" transform="translate(17.56 3.86)"/>
  <path class="cls-1" d="m322.65,284.5c0.5,0.27 0.75,0.85 0.47,2.11l0,0l0.06,0c0.29,-1.25 0.01,-1.84 -0.53,-2.11z" id="svg_13" transform="translate(17.56 3.86)"/>
  <path class="cls-1" d="m299.19,390.42l-0.05,0a0.6,0.6 0 0 0 0.11,0.06c2.18,-3.49 5.23,-4.36 9.36,-2.87l0,-0.06c-4.15,-1.55 -7.22,-0.65 -9.42,2.87z" id="svg_14" transform="translate(17.56 3.86)"/>
  <path class="cls-1" d="m371.81,289.21a10.08,10.08 0 0 1 3.33,2.6l0,0a9.63,9.63 0 0 0 -3.33,-2.6z" id="svg_15" transform="translate(17.56 3.86)"/>
  <path class="cls-1" d="m528.59,308.3l0,0.05a4.17,4.17 0 0 0 3.28,-1.54l0,0a4.17,4.17 0 0 1 -3.28,1.49z" id="svg_16" transform="translate(17.56 3.86)"/>
  <path class="cls-1" d="m443.73,395.41l0,0s0,0 0.05,0.05a4.1,4.1 0 0 0 3.49,1.3l0.12,-0.08a4.09,4.09 0 0 1 -3.66,-1.27z" id="svg_17" transform="translate(17.56 3.86)"/>
  <path class="cls-1" d="m337.28,291.75l-0.08,0l2.06,2.59l0,0l0.08,0l-2.06,-2.59z" id="svg_18" transform="translate(17.56 3.86)"/>
  <path class="cls-1" d="m322,394.87l0.05,0.07l0,0a1.46,1.46 0 0 1 2.45,-0.76l0,0a1.48,1.48 0 0 0 -2.5,0.69z" id="svg_19" transform="translate(17.56 3.86)"/>
  <path class="cls-1" d="m314.2,394.34l0,0l0.05,0l1.64,1l0.05,0l-1.74,-1z" id="svg_20" transform="translate(17.56 3.86)"/>
  <rect fill="#ffffff" height="2048" id="svg_21" width="285.211265" x="0" y="0"/>
  <rect fill="#ffffff" height="2048" id="svg_23" transform="matrix(1 0 0 1 0 0)" width="281.455386" x="742.544614" y="0"/>
  <rect fill="#ffffff" height="844.938898" id="svg_24" transform="matrix(1 0 0 1 0 0)" width="866" x="79" y="0"/>
  <rect fill="#ffffff" height="882.159559" id="svg_25" width="866" x="64.220657" y="1165.840425"/>
 </g>
</svg>